<svg xmlns="http://www.w3.org/2000/svg" fill="none" viewBox="0 0 24 24" class="ionicon"><path stroke="currentColor" stroke-linecap="round" stroke-linejoin="round" stroke-width="1.5" d="M20 11.004s0-1.57-.152-1.938-.441-.657-1.02-1.235l-4.736-4.739c-.499-.499-.748-.748-1.058-.896a2 2 0 0 0-.197-.082C12.514 2 12.161 2 11.456 2c-3.245 0-4.868 0-5.967.886a4 4 0 0 0-.603.604C4 4.59 4 6.213 4 9.46v4.545c0 3.773 0 5.66 1.172 6.832C6.115 21.78 7.52 21.964 10 22m3-19.5V3c0 2.83 0 4.245.879 5.124.878.879 2.293.879 5.121.879h.5"/><path stroke="currentColor" stroke-linecap="round" stroke-linejoin="round" stroke-width="1.5" d="M17.397 19.745c0 1.243-.984 2.252-2.198 2.252-1.215 0-2.199-1.009-2.199-2.252 0-1.244.984-2.253 2.198-2.253 1.215 0 2.2 1.009 2.2 2.253m0 0V14c.22.496 1.307 2.7 2.604 2.7"/></svg>