<svg xmlns="http://www.w3.org/2000/svg" fill="none" viewBox="0 0 24 24" class="ionicon"><path fill="currentColor" fill-rule="evenodd" d="M12.051 1.25h-.102c-2.072 0-3.695 0-4.973.155-1.306.159-2.351.49-3.21 1.223a6 6 0 0 0-.638.638c-.734.859-1.064 1.904-1.223 3.21-.155 1.278-.155 2.901-.155 4.973v.102c0 2.072 0 3.695.155 4.973.159 1.306.49 2.351 1.223 3.21q.293.345.638.638c.788.673 1.733 1.007 2.893 1.18 1.143.17 2.563.194 4.34.197a.75.75 0 1 0 .003-1.5 88 88 0 0 1-1.752-.017V8.75h11.482c.018.79.018 1.697.018 2.75a.75.75 0 0 0 1.5 0v-.051c0-2.072 0-3.695-.155-4.973-.159-1.306-.49-2.351-1.223-3.21a6 6 0 0 0-.638-.638c-.859-.734-1.904-1.064-3.21-1.223-1.278-.155-2.901-.155-4.973-.155m8.613 6H9.25V2.768c.79-.018 1.697-.018 2.75-.018 2.134 0 3.666.001 4.843.144 1.16.141 1.873.41 2.417.874q.255.218.472.472c.464.544.733 1.257.874 2.417q.034.282.058.593m-17.328 0H7.75V2.836a14 14 0 0 0-.593.058c-1.16.141-1.873.41-2.417.874q-.255.218-.472.472c-.464.544-.733 1.257-.874 2.417a14 14 0 0 0-.058.593m4.414 1.5H3.268c-.018.79-.018 1.697-.018 2.75 0 2.134.001 3.666.144 4.843.141 1.16.41 1.873.874 2.417q.218.255.472.472c.5.426 1.142.688 2.14.837q.401.059.87.095zm14.5 5.75a.75.75 0 0 0-1.5 0c0 .948 0 1.61-.047 2.122-.046.503-.13.788-.254 1.003a2.25 2.25 0 0 1-.824.824c-.215.124-.5.208-1.003.254-.512.046-1.174.047-2.122.047h-.962l.007-.006c.249-.21.512-.417.757-.61l.057-.045c.245-.192.502-.394.664-.551a.75.75 0 1 0-1.046-1.076 9 9 0 0 1-.544.448l-.06.047c-.242.19-.526.413-.797.642-.291.247-.593.522-.828.798a2.7 2.7 0 0 0-.323.46 1.4 1.4 0 0 0-.175.643c0 .258.089.48.175.642.09.168.206.323.323.461.235.276.537.551.828.797.27.23.555.453.797.643l.06.047q.407.318.544.448a.75.75 0 1 0 1.046-1.076 9 9 0 0 0-.664-.551l-.057-.045c-.245-.193-.508-.4-.757-.61l-.007-.006h.998c.904 0 1.633 0 2.222-.053.606-.055 1.136-.172 1.617-.45a3.75 3.75 0 0 0 1.373-1.372c.277-.481.394-1.011.449-1.617.053-.589.053-1.318.053-2.222z" clip-rule="evenodd"/></svg>