<svg xmlns="http://www.w3.org/2000/svg" fill="none" viewBox="0 0 24 24" class="ionicon"><path stroke="currentColor" stroke-linecap="round" stroke-width="1.5" d="m9.523 14.436 4.914-4.913"/><path stroke="currentColor" stroke-linecap="round" stroke-linejoin="round" stroke-width="1.5" d="M21.017 16.009h-2.004m-3.005 5.01v-2.004M2.984 7.992h2.004m3.006-5.01v2.004M15.109 12.569c1.14.74 2.308.542 3.162-.312l2.995-2.995a2.506 2.506 0 0 0 0-3.543L18.28 2.733a2.504 2.504 0 0 0-3.542 0l-2.995 2.995c-.702.702-1.107 2.036-.277 3.182M12.57 15.109c.739 1.14.542 2.309-.313 3.163l-2.994 2.995a2.504 2.504 0 0 1-3.542 0l-2.985-2.986a2.506 2.506 0 0 1 0-3.543l2.994-2.995c.702-.702 2.035-1.107 3.182-.277"/></svg>